<svg id="ms_logo_lines" data-name="ms logo lines" xmlns="http://www.w3.org/2000/svg" viewBox="0 0 50 50"><defs><style>.cls-1,.cls-2{fill:none;stroke-linecap:round;stroke-linejoin:round;stroke-width:2.43px;}.cls-1{stroke:#e4002b;}.cls-2{stroke:#3f154f;}</style></defs><title>50px-ms-logo-lines</title><g id="all"><g id="cherry"><path class="cls-1" d="M38.27,21.32V8.15a6.59,6.59,0,0,0-13.17,0,6.59,6.59,0,0,0-13.17,0V21.32"/><line class="cls-1" x1="25.1" y1="15.35" x2="25.1" y2="34.39"/><line class="cls-1" x1="38.32" y1="28.62" x2="38.32" y2="48.48"/><line class="cls-1" x1="25.1" y1="41.79" x2="25.1" y2="48.42"/><line class="cls-1" x1="11.98" y1="28.62" x2="11.98" y2="48.48"/></g><g id="plum"><path class="cls-2" d="M41.91,38.09a6.59,6.59,0,1,0,0-13.17H28.74"/><path class="cls-2" d="M8.33,11.75a6.59,6.59,0,1,0,0,13.17H21.5"/><line class="cls-2" x1="48.5" y1="11.75" x2="41.97" y2="11.75"/><line class="cls-2" x1="34.57" y1="11.7" x2="15.62" y2="11.7"/><line class="cls-2" x1="34.72" y1="38.09" x2="15.57" y2="38.09"/><line class="cls-2" x1="8.38" y1="38.09" x2="1.79" y2="38.09"/></g></g></svg>